<?xml version="1.0" encoding="UTF-8"?>
<svg version="1.1" xmlns="http://www.w3.org/2000/svg" width="100" height="100">
<path d="M0 0 C2.1875 2.5625 2.1875 2.5625 3.1875 11.5625 C-16.9425 15.5225 -37.0725 19.4825 -57.8125 23.5625 C-37.45332052 23.85190056 -37.45332052 23.85190056 -17.09399414 24.13061523 C-14.5535423 24.16871846 -12.01309589 24.20718589 -9.47265625 24.24609375 C-8.80842148 24.25423599 -8.14418671 24.26237823 -7.45982361 24.27076721 C-5.51229757 24.29501477 -3.56485829 24.32595159 -1.61743164 24.35717773 C-0.51822891 24.37272202 0.58097382 24.3882663 1.71348572 24.40428162 C4.1875 24.5625 4.1875 24.5625 5.1875 25.5625 C5.29626242 27.06497887 5.3365346 28.5724957 5.34863281 30.07885742 C5.35824036 31.04043259 5.3678479 32.00200775 5.37774658 32.99272156 C5.38199646 34.04055313 5.38624634 35.0883847 5.390625 36.16796875 C5.39632507 37.23992996 5.40202515 38.31189117 5.40789795 39.41633606 C5.41736707 41.69201668 5.42388948 43.96771113 5.42773438 46.2434082 C5.43741048 49.71785684 5.46840415 53.19170675 5.5 56.66601562 C5.50653269 58.87499648 5.51178212 61.08398158 5.515625 63.29296875 C5.5279718 64.33067917 5.5403186 65.36838959 5.55303955 66.43754578 C5.5364597 71.8369302 5.44250338 76.00668993 2.1875 80.5625 C-1.32678387 82.93868979 -4.54184309 82.82165683 -8.70483398 82.8371582 C-9.38989014 82.84226913 -10.07494629 82.84738007 -10.78076172 82.85264587 C-13.0401285 82.86651972 -15.29918949 82.86558683 -17.55859375 82.86328125 C-19.13273736 82.86716938 -20.70687991 82.8715043 -22.28102112 82.87626648 C-25.57873945 82.88372391 -28.8763507 82.88344088 -32.17407227 82.87817383 C-36.39533209 82.87237958 -40.61615308 82.88931111 -44.83734035 82.9125185 C-48.08790133 82.92726639 -51.33835688 82.92812612 -54.58894539 82.92500877 C-56.14503918 82.92552145 -57.70113896 82.93074915 -59.25720024 82.94082069 C-61.43534554 82.95318876 -63.61263932 82.94639211 -65.79077148 82.93481445 C-67.02891098 82.93544388 -68.26705048 82.9360733 -69.54270935 82.9367218 C-73.12037652 82.52726407 -74.9652923 81.72997564 -77.8125 79.5625 C-79.90270153 76.42719771 -80.0599595 75.7441823 -80.03955078 72.18286133 C-80.03932419 70.86183159 -80.03932419 70.86183159 -80.03909302 69.51411438 C-80.02877045 68.56715195 -80.01844788 67.62018951 -80.0078125 66.64453125 C-80.00356766 65.18595955 -80.00356766 65.18595955 -79.99923706 63.69792175 C-79.98803599 60.59015634 -79.96293148 57.48267841 -79.9375 54.375 C-79.92747011 52.26888437 -79.91834427 50.16276422 -79.91015625 48.05664062 C-79.88809688 42.8918162 -79.85356746 37.72720685 -79.8125 32.5625 C-80.8025 32.2325 -81.7925 31.9025 -82.8125 31.5625 C-84.27297601 28.50245503 -85.04263642 26.53418711 -84.25 23.1875 C-83.775625 22.32125 -83.30125 21.455 -82.8125 20.5625 C-82.50892578 19.92868408 -82.20535156 19.29486816 -81.89257812 18.6418457 C-78.99841577 13.19621728 -78.99841577 13.19621728 -75.99047852 11.58886719 C-73.6271127 10.9243179 -71.30125684 10.50240781 -68.875 10.125 C-66.84632801 9.7475364 -64.81768515 9.36991621 -62.7890625 8.9921875 C-60.98356934 8.67459473 -60.98356934 8.67459473 -59.14160156 8.35058594 C-53.83586583 7.40230931 -48.55653688 6.32377069 -43.2734375 5.2578125 C-39.09927952 4.42026728 -34.92472417 3.58471817 -30.75 2.75 C-29.19854782 2.43931076 -29.19854782 2.43931076 -27.61575317 2.12234497 C-24.62914426 1.52712858 -21.6410335 0.94013607 -18.65234375 0.35546875 C-17.29881302 0.08399521 -17.29881302 0.08399521 -15.91793823 -0.19296265 C-4.65190143 -2.37763851 -4.65190143 -2.37763851 0 0 Z " fill="#83756B" transform="translate(89.8125,12.4375)"/>
<path d="M0 0 C2.1875 2.5625 2.1875 2.5625 3.1875 11.5625 C-16.9425 15.5225 -37.0725 19.4825 -57.8125 23.5625 C-37.45332052 23.85190056 -37.45332052 23.85190056 -17.09399414 24.13061523 C-14.5535423 24.16871846 -12.01309589 24.20718589 -9.47265625 24.24609375 C-8.80842148 24.25423599 -8.14418671 24.26237823 -7.45982361 24.27076721 C-5.51229757 24.29501477 -3.56485829 24.32595159 -1.61743164 24.35717773 C-0.51822891 24.37272202 0.58097382 24.3882663 1.71348572 24.40428162 C4.1875 24.5625 4.1875 24.5625 5.1875 25.5625 C5.29626242 27.06497887 5.3365346 28.5724957 5.34863281 30.07885742 C5.35824036 31.04043259 5.3678479 32.00200775 5.37774658 32.99272156 C5.38199646 34.04055313 5.38624634 35.0883847 5.390625 36.16796875 C5.39632507 37.23992996 5.40202515 38.31189117 5.40789795 39.41633606 C5.41736707 41.69201668 5.42388948 43.96771113 5.42773438 46.2434082 C5.43741048 49.71785684 5.46840415 53.19170675 5.5 56.66601562 C5.50653269 58.87499648 5.51178212 61.08398158 5.515625 63.29296875 C5.5279718 64.33067917 5.5403186 65.36838959 5.55303955 66.43754578 C5.5364597 71.8369302 5.44250338 76.00668993 2.1875 80.5625 C-1.32678387 82.93868979 -4.54184309 82.82165683 -8.70483398 82.8371582 C-9.38989014 82.84226913 -10.07494629 82.84738007 -10.78076172 82.85264587 C-13.0401285 82.86651972 -15.29918949 82.86558683 -17.55859375 82.86328125 C-19.13273736 82.86716938 -20.70687991 82.8715043 -22.28102112 82.87626648 C-25.57873945 82.88372391 -28.8763507 82.88344088 -32.17407227 82.87817383 C-36.39533209 82.87237958 -40.61615308 82.88931111 -44.83734035 82.9125185 C-48.08790133 82.92726639 -51.33835688 82.92812612 -54.58894539 82.92500877 C-56.14503918 82.92552145 -57.70113896 82.93074915 -59.25720024 82.94082069 C-61.43534554 82.95318876 -63.61263932 82.94639211 -65.79077148 82.93481445 C-67.02891098 82.93544388 -68.26705048 82.9360733 -69.54270935 82.9367218 C-73.12037652 82.52726407 -74.9652923 81.72997564 -77.8125 79.5625 C-80.04663013 76.21130481 -80.05097762 75.1447245 -80.0078125 71.23828125 C-80.00136719 70.21025391 -79.99492188 69.18222656 -79.98828125 68.12304688 C-79.97152344 67.05119141 -79.95476562 65.97933594 -79.9375 64.875 C-79.92847656 63.79154297 -79.91945313 62.70808594 -79.91015625 61.59179688 C-79.8865734 58.9151429 -79.85366126 56.23893203 -79.8125 53.5625 C-79.1525 53.8925 -78.4925 54.2225 -77.8125 54.5625 C-77.79791748 55.21323486 -77.78333496 55.86396973 -77.76831055 56.53442383 C-77.69385451 59.48188306 -77.59718734 62.42820642 -77.5 65.375 C-77.47744141 66.39916016 -77.45488281 67.42332031 -77.43164062 68.47851562 C-77.39619141 69.46142578 -77.36074219 70.44433594 -77.32421875 71.45703125 C-77.29803467 72.36300049 -77.27185059 73.26896973 -77.24487305 74.20239258 C-76.70945183 77.12498824 -76.2160567 77.83008286 -73.8125 79.5625 C-70.58084828 80.02109793 -70.58084828 80.02109793 -66.81835938 79.95068359 C-65.7569146 79.95856903 -65.7569146 79.95856903 -64.67402649 79.96661377 C-62.33454323 79.97981947 -59.9957402 79.97107415 -57.65625 79.9609375 C-56.03104522 79.96295808 -54.40584132 79.96586939 -52.78063965 79.96963501 C-49.37434254 79.97405912 -45.96828141 79.96762466 -42.56201172 79.95361328 C-38.19365404 79.93652117 -33.82584929 79.94636191 -29.4575119 79.96433067 C-26.1014997 79.97516627 -22.7456188 79.97172324 -19.38960266 79.9639473 C-17.77883336 79.96194466 -16.16805218 79.9644068 -14.55729675 79.97138596 C-12.30675639 79.97899698 -10.05711402 79.96740228 -7.80664062 79.95068359 C-6.52551392 79.94829681 -5.24438721 79.94591003 -3.92443848 79.94345093 C-0.878254 79.7965747 -0.878254 79.7965747 1.10334778 78.34638977 C2.54018394 75.98218548 2.54895097 74.39451231 2.52807617 71.63208008 C2.52784958 70.63126907 2.52762299 69.63045807 2.52738953 68.59931946 C2.51190567 67.52111435 2.49642181 66.44290924 2.48046875 65.33203125 C2.47622391 64.22647385 2.47197906 63.12091644 2.46760559 61.9818573 C2.45079437 58.44599188 2.41313685 54.91069355 2.375 51.375 C2.35995636 48.97982593 2.3462674 46.58464294 2.33398438 44.18945312 C2.30088285 38.31360815 2.25065893 32.43809458 2.1875 26.5625 C-2.3154078 26.63135413 -6.81738488 26.7193066 -11.31958008 26.82495117 C-12.85105059 26.85819818 -14.38264356 26.88623093 -15.91430664 26.90893555 C-18.11657887 26.94248718 -20.31772912 26.9947991 -22.51953125 27.05078125 C-23.20400833 27.05717117 -23.88848541 27.0635611 -24.59370422 27.07014465 C-27.56270838 27.1619084 -29.3878313 27.22985787 -31.76831055 29.09448242 C-32.11289307 29.57892822 -32.45747559 30.06337402 -32.8125 30.5625 C-32.4825 29.2425 -32.1525 27.9225 -31.8125 26.5625 C-34.25172361 26.64950798 -36.68728414 26.75636002 -39.125 26.875 C-39.81529297 26.89755859 -40.50558594 26.92011719 -41.21679688 26.94335938 C-45.30456734 27.1461997 -45.30456734 27.1461997 -48.79296875 29.10546875 C-49.12941406 29.58628906 -49.46585938 30.06710938 -49.8125 30.5625 C-49.4825 29.2425 -49.1525 27.9225 -48.8125 26.5625 C-53.96111264 26.40059394 -58.76850921 26.43565099 -63.8125 27.5625 C-66.53085609 30.23051617 -67.74952886 32.93373646 -68.8125 36.5625 C-66.5025 36.5625 -64.1925 36.5625 -61.8125 36.5625 C-61.8125 37.2225 -61.8125 37.8825 -61.8125 38.5625 C-67.0925 38.5625 -72.3725 38.5625 -77.8125 38.5625 C-77.8125 42.1925 -77.8125 45.8225 -77.8125 49.5625 C-78.8025 50.0575 -78.8025 50.0575 -79.8125 50.5625 C-79.8125 44.6225 -79.8125 38.6825 -79.8125 32.5625 C-80.8025 32.2325 -81.7925 31.9025 -82.8125 31.5625 C-84.27297601 28.50245503 -85.04263642 26.53418711 -84.25 23.1875 C-83.775625 22.32125 -83.30125 21.455 -82.8125 20.5625 C-82.50892578 19.92868408 -82.20535156 19.29486816 -81.89257812 18.6418457 C-78.99841577 13.19621728 -78.99841577 13.19621728 -75.99047852 11.58886719 C-73.6271127 10.9243179 -71.30125684 10.50240781 -68.875 10.125 C-66.84632801 9.7475364 -64.81768515 9.36991621 -62.7890625 8.9921875 C-60.98356934 8.67459473 -60.98356934 8.67459473 -59.14160156 8.35058594 C-53.83586583 7.40230931 -48.55653688 6.32377069 -43.2734375 5.2578125 C-39.09927952 4.42026728 -34.92472417 3.58471817 -30.75 2.75 C-29.19854782 2.43931076 -29.19854782 2.43931076 -27.61575317 2.12234497 C-24.62914426 1.52712858 -21.6410335 0.94013607 -18.65234375 0.35546875 C-17.29881302 0.08399521 -17.29881302 0.08399521 -15.91793823 -0.19296265 C-4.65190143 -2.37763851 -4.65190143 -2.37763851 0 0 Z " fill="#3D342C" transform="translate(89.8125,12.4375)"/>
<path d="M0 0 C0.12537741 2.14307896 0.17574364 4.29078886 0.1875 6.4375 C0.20167969 7.61183594 0.21585938 8.78617188 0.23046875 9.99609375 C0 13 0 13 -2 15 C-4.04931641 15.25396729 -4.04931641 15.25396729 -6.6015625 15.25878906 C-7.55595215 15.26509338 -8.5103418 15.27139771 -9.49365234 15.27789307 C-10.52699707 15.2738446 -11.5603418 15.26979614 -12.625 15.265625 C-13.68283691 15.26753845 -14.74067383 15.2694519 -15.83056641 15.27142334 C-18.06998939 15.27278602 -20.30942026 15.26908382 -22.54882812 15.26074219 C-25.98585677 15.25004402 -29.4223627 15.26063488 -32.859375 15.2734375 C-35.03125116 15.27211592 -37.20312699 15.26955356 -39.375 15.265625 C-40.40834473 15.26967346 -41.44168945 15.27372192 -42.50634766 15.27789307 C-43.4607373 15.27158875 -44.41512695 15.26528442 -45.3984375 15.25878906 C-46.24067871 15.25719788 -47.08291992 15.25560669 -47.95068359 15.25396729 C-50 15 -50 15 -52 13 C-52.265625 10.25 -52.265625 10.25 -52.25 7 C-52.25515625 5.9275 -52.2603125 4.855 -52.265625 3.75 C-52 1 -52 1 -50 -1 C-47.43063267 -1.25861557 -44.96197755 -1.39784917 -42.38671875 -1.44921875 C-41.62132278 -1.47095657 -40.85592682 -1.4926944 -40.06733704 -1.51509094 C-38.4391352 -1.55908356 -36.81079749 -1.59826604 -35.18237305 -1.63305664 C-32.73501912 -1.68646303 -30.28863154 -1.75695319 -27.84179688 -1.83007812 C-2.50948387 -2.50948387 -2.50948387 -2.50948387 0 0 Z " fill="#F8E4C8" transform="translate(78,64)"/>
<path d="M0 0 C2.40005967 2.81149847 2.52777359 3.68125227 2.82421875 7.22265625 C2.93382935 8.44094116 2.93382935 8.44094116 3.0456543 9.68383789 C3.09246338 10.30379639 3.13927246 10.92375488 3.1875 11.5625 C-3.97287342 13.02879473 -11.13588333 14.48140032 -18.3024826 15.91697788 C-21.63077392 16.58412276 -24.95800882 17.25580478 -28.28320312 17.93823242 C-32.11313272 18.7240322 -35.94700593 19.48942445 -39.78125 20.25390625 C-41.55671204 20.62256554 -41.55671204 20.62256554 -43.36804199 20.99867249 C-49.55802453 22.2156348 -54.60702245 22.81757781 -60.8125 21.5625 C-60.33744322 19.74891846 -59.85733958 17.93665821 -59.375 16.125 C-59.10816406 15.11566406 -58.84132813 14.10632813 -58.56640625 13.06640625 C-57.8125 10.5625 -57.8125 10.5625 -56.8125 9.5625 C-55.4203125 9.5934375 -55.4203125 9.5934375 -54 9.625 C-50.75626612 9.56139737 -49.5950451 8.99865231 -46.8125 7.5625 C-45.14583333 7.5625 -43.47916667 7.5625 -41.8125 7.5625 C-40.13504318 6.92346883 -38.46688613 6.25908363 -36.8125 5.5625 C-35.8225 5.5625 -34.8325 5.5625 -33.8125 5.5625 C-33.8125 4.9025 -33.8125 4.2425 -33.8125 3.5625 C-29.77277133 2.71958214 -25.73043891 1.88987135 -21.6875 1.0625 C-20.54539063 0.82402344 -19.40328125 0.58554688 -18.2265625 0.33984375 C-17.11796875 0.11425781 -16.009375 -0.11132812 -14.8671875 -0.34375 C-13.85124512 -0.55322266 -12.83530273 -0.76269531 -11.78857422 -0.97851562 C-7.37346177 -1.65943535 -4.0328911 -2.06125545 0 0 Z " fill="#504D48" transform="translate(89.8125,12.4375)"/>
<path d="M0 0 C1.37194501 0.03313877 2.74345655 0.0926453 4.11328125 0.17578125 C4.81517578 0.19833984 5.51707031 0.22089844 6.24023438 0.24414062 C7.96966455 0.30296478 9.69799563 0.39264736 11.42578125 0.48828125 C11.42578125 1.47828125 11.42578125 2.46828125 11.42578125 3.48828125 C12.08578125 2.49828125 12.74578125 1.50828125 13.42578125 0.48828125 C16.05275189 0.26690732 18.43472089 0.206661 21.05078125 0.30078125 C21.7571875 0.31431641 22.46359375 0.32785156 23.19140625 0.34179688 C24.93652253 0.37717085 26.68124733 0.43097904 28.42578125 0.48828125 C28.42578125 1.47828125 28.42578125 2.46828125 28.42578125 3.48828125 C29.08578125 2.49828125 29.74578125 1.50828125 30.42578125 0.48828125 C32.90919028 0.22101111 35.14050193 0.13961791 37.62109375 0.1953125 C38.68225906 0.20167976 38.68225906 0.20167976 39.76486206 0.20817566 C42.0272203 0.22498578 44.28869173 0.26263997 46.55078125 0.30078125 C48.08332048 0.31582518 49.61587365 0.32951409 51.1484375 0.34179688 C54.90789443 0.37489663 58.66668743 0.426693 62.42578125 0.48828125 C63.42578125 2.48828125 63.42578125 2.48828125 63.42578125 12.48828125 C41.97578125 12.48828125 20.52578125 12.48828125 -1.57421875 12.48828125 C-1.57421875 11.82828125 -1.57421875 11.16828125 -1.57421875 10.48828125 C-3.88421875 10.48828125 -6.19421875 10.48828125 -8.57421875 10.48828125 C-7.9492048 8.80555139 -7.27244492 7.14197482 -6.57421875 5.48828125 C-6.21328125 4.61171875 -5.85234375 3.73515625 -5.48046875 2.83203125 C-3.57421875 0.48828125 -3.57421875 0.48828125 0 0 Z " fill="#605E58" transform="translate(29.57421875,38.51171875)"/>
<path d="M0 0 C2.64 0.33 5.28 0.66 8 1 C7.54965877 2.62723299 7.08944646 4.25173664 6.625 5.875 C6.24214844 7.23238281 6.24214844 7.23238281 5.8515625 8.6171875 C4.59220175 12.14108685 3.21294347 12.89787137 -0.16015625 14.515625 C-8.51445558 17.94812884 -18.10694866 19.99639928 -27 18 C-26.52494322 16.18641846 -26.04483958 14.37415821 -25.5625 12.5625 C-25.29566406 11.55316406 -25.02882813 10.54382813 -24.75390625 9.50390625 C-24 7 -24 7 -23 6 C-22.071875 6.020625 -21.14375 6.04125 -20.1875 6.0625 C-16.94376612 5.99889737 -15.7825451 5.43615231 -13 4 C-11.33333333 4 -9.66666667 4 -8 4 C-6.32254318 3.36096883 -4.65438613 2.69658363 -3 2 C-2.01 2 -1.02 2 0 2 C0 1.34 0 0.68 0 0 Z " fill="#59554D" transform="translate(56,16)"/>
<path d="M0 0 C1.4540625 0.0309375 1.4540625 0.0309375 2.9375 0.0625 C2.62828116 1.52153258 2.31501201 2.97970722 2 4.4375 C1.73896484 5.65566406 1.73896484 5.65566406 1.47265625 6.8984375 C0.9375 9.0625 0.9375 9.0625 -0.0625 11.0625 C-2.38406597 11.46979228 -4.7193787 11.80688677 -7.0625 12.0625 C-7.0625 13.0525 -7.0625 14.0425 -7.0625 15.0625 C-5.7425 15.0625 -4.4225 15.0625 -3.0625 15.0625 C-4.51200455 18.8535119 -6.21422566 22.4499638 -8.0625 26.0625 C-10.3725 26.0625 -12.6825 26.0625 -15.0625 26.0625 C-15.3925 24.4125 -15.7225 22.7625 -16.0625 21.0625 C-17.0525 21.0625 -18.0425 21.0625 -19.0625 21.0625 C-20.51672126 12.8627946 -20.51672126 12.8627946 -18.75 9.75 C-18.193125 9.193125 -17.63625 8.63625 -17.0625 8.0625 C-16.794375 7.381875 -16.52625 6.70125 -16.25 6 C-14.44715448 3.0585152 -12.21877592 2.30025526 -9.0625 1.0625 C-6.25 0.9375 -6.25 0.9375 -4.0625 1.0625 C-3.0625 0.0625 -3.0625 0.0625 0 0 Z " fill="#E26773" transform="translate(27.0625,23.9375)"/>
<path d="M0 0 C1.98 0 3.96 0 6 0 C6.09894543 5.33848672 6.17150414 10.67643869 6.21972656 16.015625 C6.23983061 17.8314748 6.26711835 19.64725995 6.30175781 21.46289062 C6.35033039 24.07438105 6.37298027 26.68501498 6.390625 29.296875 C6.41127014 30.10743347 6.43191528 30.91799194 6.45318604 31.75311279 C6.45461721 35.35556281 6.32011572 37.5478562 4.20996094 40.52832031 C1.10459606 42.59627651 -1.35880839 42.28009166 -5 42 C-4.02885254 41.27925293 -4.02885254 41.27925293 -3.03808594 40.54394531 C-0.18651931 36.98461083 -0.39725379 33.67003172 -0.390625 29.296875 C-0.37408875 28.45908508 -0.35755249 27.62129517 -0.34051514 26.75811768 C-0.29202501 24.08867063 -0.27066255 21.41979326 -0.25 18.75 C-0.22184107 16.93747132 -0.19191375 15.1249692 -0.16015625 13.3125 C-0.08626606 8.87504691 -0.03669786 4.43791023 0 0 Z " fill="#695B51" transform="translate(87,51)"/>
<path d="M0 0 C1.37194501 0.03313877 2.74345655 0.0926453 4.11328125 0.17578125 C4.81517578 0.19833984 5.51707031 0.22089844 6.24023438 0.24414062 C7.96966455 0.30296478 9.69799563 0.39264736 11.42578125 0.48828125 C9.55078125 8.23828125 9.55078125 8.23828125 8.42578125 10.48828125 C11.06578125 10.15828125 13.70578125 9.82828125 16.42578125 9.48828125 C16.42578125 10.14828125 16.42578125 10.80828125 16.42578125 11.48828125 C18.73578125 11.48828125 21.04578125 11.48828125 23.42578125 11.48828125 C23.42578125 11.81828125 23.42578125 12.14828125 23.42578125 12.48828125 C15.17578125 12.48828125 6.92578125 12.48828125 -1.57421875 12.48828125 C-1.57421875 11.82828125 -1.57421875 11.16828125 -1.57421875 10.48828125 C-3.88421875 10.48828125 -6.19421875 10.48828125 -8.57421875 10.48828125 C-7.9492048 8.80555139 -7.27244492 7.14197482 -6.57421875 5.48828125 C-6.21328125 4.61171875 -5.85234375 3.73515625 -5.48046875 2.83203125 C-3.57421875 0.48828125 -3.57421875 0.48828125 0 0 Z " fill="#5B5852" transform="translate(29.57421875,38.51171875)"/>
<path d="M0 0 C5.99251751 -0.36052544 5.99251751 -0.36052544 8.77734375 1.91796875 C9.83681238 4.53132471 9.94775357 6.4355509 9.71484375 9.23046875 C0.86696919 13.72187348 0.86696919 13.72187348 -4.28515625 12.23046875 C-6.62681124 12.49918326 -8.96399914 12.82085279 -11.28515625 13.23046875 C-10.56289827 9.44178217 -9.71801344 5.81803921 -8.28515625 2.23046875 C-5.36620578 0.35400059 -3.37449929 0.34033412 0 0 Z " fill="#85BCD2" transform="translate(81.28515625,12.76953125)"/>
<path d="M0 0 C-3 2 -3 2 -7 2 C-7.33 2.66 -7.66 3.32 -8 4 C-10.64 4 -13.28 4 -16 4 C-16.33 4.66 -16.66 5.32 -17 6 C-18.98 6 -20.96 6 -23 6 C-24.32 9.63 -25.64 13.26 -27 17 C-27.66 16.67 -28.32 16.34 -29 16 C-28.01 13.03 -27.02 10.06 -26 7 C-30.47883696 7.44703986 -30.47883696 7.44703986 -34 10 C-34 9.34 -34 8.68 -34 8 C-38.41522109 9.26974972 -38.41522109 9.26974972 -42 12 C-42.66 12 -43.32 12 -44 12 C-44.28875 12.78375 -44.5775 13.5675 -44.875 14.375 C-46 17 -46 17 -48 19 C-48.24212873 20.98128508 -48.24212873 20.98128508 -48.125 23.125 C-48.063125 25.043125 -48.063125 25.043125 -48 27 C-50.19398174 24.80601826 -50.6546935 24.02143183 -51 21 C-50.375 18.75 -50.375 18.75 -49 16 C-48.72019287 15.36650635 -48.44038574 14.7330127 -48.15209961 14.08032227 C-46.46587933 10.78422862 -45.12432869 8.52168661 -41.69433594 6.93017578 C-38.86791008 6.18427002 -36.07358228 5.651477 -33.1875 5.1875 C-31.65730225 4.90096558 -31.65730225 4.90096558 -30.09619141 4.60864258 C-28.03758212 4.22619081 -25.97631786 3.85774302 -23.91259766 3.50390625 C-21.30042714 3.05197666 -18.70367854 2.55664525 -16.10546875 2.03125 C-5.04911799 -0.18100612 -5.04911799 -0.18100612 0 0 Z " fill="#473F38" transform="translate(56,17)"/>
<path d="M0 0 C1.4540625 0.0309375 1.4540625 0.0309375 2.9375 0.0625 C2.62828116 1.52153258 2.31501201 2.97970722 2 4.4375 C1.82597656 5.24960937 1.65195312 6.06171875 1.47265625 6.8984375 C0.9375 9.0625 0.9375 9.0625 -0.0625 11.0625 C-2.38406597 11.46979228 -4.7193787 11.80688677 -7.0625 12.0625 C-7.0625 11.0725 -7.0625 10.0825 -7.0625 9.0625 C-8.0525 9.0625 -9.0425 9.0625 -10.0625 9.0625 C-10.7225 8.7325 -11.3825 8.4025 -12.0625 8.0625 C-12.25 5.6875 -12.25 5.6875 -12.0625 3.0625 C-8.79183122 0.88205415 -7.80831273 0.96392598 -4.0625 1.0625 C-3.0625 0.0625 -3.0625 0.0625 0 0 Z " fill="#F1DEC2" transform="translate(27.0625,23.9375)"/>
<path d="M0 0 C0.9075 0.12375 1.815 0.2475 2.75 0.375 C4.57089479 4.01678957 3.80121113 8.38053148 3.75 12.375 C-0.54 12.045 -4.83 11.715 -9.25 11.375 C-4.92741935 0.56854839 -4.92741935 0.56854839 0 0 Z " fill="#86C0D6" transform="translate(89.25,38.625)"/>
<path d="M0 0 C1.41687119 4.25061356 0.19320039 6.71851625 -1 11 C0.32 11 1.64 11 3 11 C1.55049545 14.7910119 -0.15172566 18.3874638 -2 22 C-4.31 22 -6.62 22 -9 22 C-9.33 20.35 -9.66 18.7 -10 17 C-10.99 17 -11.98 17 -13 17 C-12.505 15.515 -12.505 15.515 -12 14 C-11.67 14.33 -11.34 14.66 -11 15 C-8.66055264 14.71269945 -6.3260857 14.38063221 -4 14 C-3.81824219 13.11248047 -3.81824219 13.11248047 -3.6328125 12.20703125 C-2.73255357 7.96196415 -1.79543379 3.97560339 0 0 Z " fill="#5D544F" transform="translate(21,28)"/>
<path d="M0 0 C3.07872742 3.60650926 3.07887886 6.94116435 3.1875 11.5625 C0.5475 11.8925 -2.0925 12.2225 -4.8125 12.5625 C-4.4825 11.9025 -4.1525 11.2425 -3.8125 10.5625 C-1.25 9.9375 -1.25 9.9375 1.1875 9.5625 C0.878125 8.634375 0.56875 7.70625 0.25 6.75 C-0.4375 4.6875 -1.125 2.625 -1.8125 0.5625 C-3.7925 0.5625 -5.7725 0.5625 -7.8125 0.5625 C-8.1425 1.2225 -8.4725 1.8825 -8.8125 2.5625 C-8.8125 1.9025 -8.8125 1.2425 -8.8125 0.5625 C-13.78161366 1.68947043 -13.78161366 1.68947043 -17.8125 4.5625 C-17.8125 3.9025 -17.8125 3.2425 -17.8125 2.5625 C-18.39257812 2.706875 -18.97265625 2.85125 -19.5703125 3 C-24.07909675 4.07139428 -28.14304247 4.80195936 -32.8125 4.5625 C-29.97988317 3.0216145 -27.41464433 2.1290406 -24.2578125 1.4921875 C-22.96423828 1.23115234 -22.96423828 1.23115234 -21.64453125 0.96484375 C-20.75121094 0.79082031 -19.85789062 0.61679688 -18.9375 0.4375 C-18.05191406 0.25574219 -17.16632813 0.07398438 -16.25390625 -0.11328125 C-4.70166011 -2.40307072 -4.70166011 -2.40307072 0 0 Z " fill="#3E352E" transform="translate(89.8125,12.4375)"/>
<path d="M0 0 C1.4540625 0.0309375 1.4540625 0.0309375 2.9375 0.0625 C2.62828116 1.52153258 2.31501201 2.97970722 2 4.4375 C1.82597656 5.24960937 1.65195313 6.06171875 1.47265625 6.8984375 C0.9375 9.0625 0.9375 9.0625 -0.0625 11.0625 C-2.38406597 11.46979228 -4.7193787 11.80688677 -7.0625 12.0625 C-6.58744322 10.24891846 -6.10733958 8.43665821 -5.625 6.625 C-5.35816406 5.61566406 -5.09132813 4.60632813 -4.81640625 3.56640625 C-3.76572911 0.07685161 -3.76572911 0.07685161 0 0 Z " fill="#F2DEC2" transform="translate(77.0625,13.9375)"/>
<path d="M0 0 C0.66 0 1.32 0 2 0 C2.268125 0.639375 2.53625 1.27875 2.8125 1.9375 C3.88667752 4.33131686 3.88667752 4.33131686 7 5 C5.75794193 8.72617422 3.8889325 10.39291457 1 13 C0.34 13 -0.32 13 -1 13 C-1.268125 12.401875 -1.53625 11.80375 -1.8125 11.1875 C-2.98493467 9.02775192 -4.19369282 7.64209744 -6 6 C-4 4 -2 2 0 0 Z " fill="#41392A" transform="translate(18,9)"/>
<path d="M0 0 C-0.45034123 1.62723299 -0.91055354 3.25173664 -1.375 4.875 C-1.63023438 5.77992187 -1.88546875 6.68484375 -2.1484375 7.6171875 C-3 10 -3 10 -5 12 C-8.125 12.125 -8.125 12.125 -11 12 C-10.41022253 10.1827669 -9.80271547 8.37127957 -9.1875 6.5625 C-8.85105469 5.55316406 -8.51460937 4.54382813 -8.16796875 3.50390625 C-7.78253906 2.67761719 -7.39710937 1.85132812 -7 1 C-4 0 -4 0 0 0 Z " fill="#F4E0C4" transform="translate(64,17)"/>
<path d="M0 0 C1.093125 0.0825 2.18625 0.165 3.3125 0.25 C0.64285714 7.4375 0.64285714 7.4375 -1.6875 10.25 C-5.375 10.5625 -5.375 10.5625 -8.6875 10.25 C-5.77476415 0.39150943 -5.77476415 0.39150943 0 0 Z " fill="#F6E2C6" transform="translate(46.6875,38.75)"/>
<path d="M0 0 C3.6875 -0.3125 3.6875 -0.3125 7 0 C4.33035714 7.1875 4.33035714 7.1875 2 10 C-1.6875 10.3125 -1.6875 10.3125 -5 10 C-2.33035714 2.8125 -2.33035714 2.8125 0 0 Z " fill="#F6E2C6" transform="translate(26,39)"/>
<path d="M0 0 C0.66 0.33 1.32 0.66 2 1 C-0.475 5.455 -0.475 5.455 -3 10 C-0.69 10 1.62 10 4 10 C4 10.66 4 11.32 4 12 C-1.28 12 -6.56 12 -12 12 C-12 15.63 -12 19.26 -12 23 C-12.66 23.33 -13.32 23.66 -14 24 C-14 18.06 -14 12.12 -14 6 C-12 9 -12 9 -12 11 C-9.69 11 -7.38 11 -5 11 C-4.731875 10.113125 -4.46375 9.22625 -4.1875 8.3125 C-3.08289181 5.23122452 -1.77150856 2.73778595 0 0 Z " fill="#574F47" transform="translate(24,39)"/>
<path d="M0 0 C1.093125 0.0825 2.18625 0.165 3.3125 0.25 C0.64285714 7.4375 0.64285714 7.4375 -1.6875 10.25 C-5.375 10.5625 -5.375 10.5625 -8.6875 10.25 C-5.77476415 0.39150943 -5.77476415 0.39150943 0 0 Z " fill="#F7E3C7" transform="translate(63.6875,38.75)"/>
<path d="M0 0 C1.093125 0.0825 2.18625 0.165 3.3125 0.25 C1.6625 3.55 0.0125 6.85 -1.6875 10.25 C-3.9975 10.25 -6.3075 10.25 -8.6875 10.25 C-5.77476415 0.39150943 -5.77476415 0.39150943 0 0 Z " fill="#F7E4C7" transform="translate(80.6875,38.75)"/>
<path d="M0 0 C2.31 0 4.62 0 7 0 C6.01 3.3 5.02 6.6 4 10 C1.69 10.33 -0.62 10.66 -3 11 C-2.01 7.37 -1.02 3.74 0 0 Z " fill="#F6E2C6" transform="translate(40,21)"/>
<path d="M0 0 C1.4540625 0.0309375 1.4540625 0.0309375 2.9375 0.0625 C1.6175 3.6925 0.2975 7.3225 -1.0625 11.0625 C-3.0425 11.3925 -5.0225 11.7225 -7.0625 12.0625 C-6.58744322 10.24891846 -6.10733958 8.43665821 -5.625 6.625 C-5.35816406 5.61566406 -5.09132813 4.60632813 -4.81640625 3.56640625 C-3.76572911 0.07685161 -3.76572911 0.07685161 0 0 Z " fill="#84BCD1" transform="translate(36.0625,21.9375)"/>
<path d="M0 0 C1.98 0 3.96 0 6 0 C5.01 3.63 4.02 7.26 3 11 C0.69 11.33 -1.62 11.66 -4 12 C-2.68 8.04 -1.36 4.08 0 0 Z " fill="#85BCD2" transform="translate(49,19)"/>
<path d="M0 0 C0.928125 0.0825 1.85625 0.165 2.8125 0.25 C0.2125 7.25 0.2125 7.25 -2.1875 10.25 C-5.375 10.5625 -5.375 10.5625 -8.1875 10.25 C-5.2814781 0.41423358 -5.2814781 0.41423358 0 0 Z " fill="#86BFD5" transform="translate(55.1875,38.75)"/>
<path d="M0 0 C0.928125 0.0825 1.85625 0.165 2.8125 0.25 C0.2125 7.25 0.2125 7.25 -2.1875 10.25 C-5.375 10.5625 -5.375 10.5625 -8.1875 10.25 C-5.2814781 0.41423358 -5.2814781 0.41423358 0 0 Z " fill="#86C0D6" transform="translate(72.1875,38.75)"/>
<path d="M0 0 C3.1875 -0.3125 3.1875 -0.3125 6 0 C3.4 7 3.4 7 1 10 C-2.1875 10.3125 -2.1875 10.3125 -5 10 C-2.4 3 -2.4 3 0 0 Z " fill="#87C0D6" transform="translate(35,39)"/>
<path d="M0 0 C1.2065625 0.0309375 1.2065625 0.0309375 2.4375 0.0625 C1.88644091 4.0117568 1.04814629 7.41170174 -0.5625 11.0625 C-2.5425 11.0625 -4.5225 11.0625 -6.5625 11.0625 C-6.0872412 9.41553396 -5.60718109 7.76995272 -5.125 6.125 C-4.85816406 5.20847656 -4.59132812 4.29195312 -4.31640625 3.34765625 C-3.23802118 0.07897613 -3.23802118 0.07897613 0 0 Z " fill="#86BED4" transform="translate(68.5625,15.9375)"/>
<path d="M0 0 C0.66 0 1.32 0 2 0 C1.85892253 1.45880109 1.71197585 2.91703551 1.5625 4.375 C1.48128906 5.18710937 1.40007812 5.99921875 1.31640625 6.8359375 C1 9 1 9 0 11 C2.42267086 11.05167527 2.42267086 11.05167527 5 10 C6.06902939 7.69747517 7.07175817 5.3627974 8 3 C8.99 2.67 9.98 2.34 11 2 C11.33 4.31 11.66 6.62 12 9 C10.5903653 9.70180531 9.17192359 10.38593958 7.75 11.0625 C6.96109375 11.44535156 6.1721875 11.82820313 5.359375 12.22265625 C2.71901449 13.09257635 1.54060482 13.07357416 -1 12 C-2.31141005 9.37717989 -1.75277698 8.24823566 -1.0625 5.4375 C-0.31546035 2.74906308 -0.31546035 2.74906308 0 0 Z " fill="#5A5852" transform="translate(79,13)"/>
<path d="M0 0 C0.66 0 1.32 0 2 0 C2 3.3 2 6.6 2 10 C-2.29 9.67 -6.58 9.34 -11 9 C-11 8.67 -11 8.34 -11 8 C-8.69 8 -6.38 8 -4 8 C-3.566875 6.8553125 -3.566875 6.8553125 -3.125 5.6875 C-2 3 -2 3 0 0 Z " fill="#6A6963" transform="translate(91,41)"/>
<path d="M0 0 C1.32 0 2.64 0 4 0 C1.4 7 1.4 7 -1 10 C-4.1875 10.3125 -4.1875 10.3125 -7 10 C-6.75 8.125 -6.75 8.125 -6 6 C-4.67532254 5.3162955 -3.34136367 4.65035814 -2 4 C-0.73195434 1.9664052 -0.73195434 1.9664052 0 0 Z " fill="#85BDD3" transform="translate(20,39)"/>
<path d="M0 0 C2.125 1.875 2.125 1.875 4 4 C4 6 4 6 2.125 8.125 C0 10 0 10 -2 10 C-4.125 8.125 -4.125 8.125 -6 6 C-6 4 -6 4 -4.125 1.875 C-2 0 -2 0 0 0 Z " fill="#3B332A" transform="translate(11,5)"/>
<path d="M0 0 C0.99 0.33 1.98 0.66 3 1 C3 1.66 3 2.32 3 3 C3.99 3.33 4.98 3.66 6 4 C4.68 5.65 3.36 7.3 2 9 C1.01 8.67 0.02 8.34 -1 8 C-1 7.34 -1 6.68 -1 6 C-1.99 5.67 -2.98 5.34 -4 5 C-2.68 3.35 -1.36 1.7 0 0 Z " fill="#4E482E" transform="translate(9,16)"/>
<path d="M0 0 C0.33 1.32 0.66 2.64 1 4 C0.01 4.495 0.01 4.495 -1 5 C-2.13350534 7.01669827 -2.13350534 7.01669827 -3 9 C-4.32 8.34 -5.64 7.68 -7 7 C-7.1875 4.625 -7.1875 4.625 -7 2 C-4 0 -4 0 0 0 Z " fill="#84B7CA" transform="translate(22,25)"/>
<path d="M0 0 C1.67542976 0.28604898 3.34385343 0.61781233 5 1 C5 2.65 5 4.3 5 6 C2.625 6.625 2.625 6.625 0 7 C-0.66 6.34 -1.32 5.68 -2 5 C-1.46428571 1.46428571 -1.46428571 1.46428571 0 0 Z " fill="#9D8274" transform="translate(11,35)"/>
<path d="M0 0 C2.75 0.8125 2.75 0.8125 5 2 C4.67 2.99 4.34 3.98 4 5 C2.02 5.33 0.04 5.66 -2 6 C-2.66 5.01 -3.32 4.02 -4 3 C-2.3125 1.375 -2.3125 1.375 0 0 Z " fill="#82823D" transform="translate(20,12)"/>
<path d="M0 0 C2 2 2 2 2 5 C3.32 5.66 4.64 6.32 6 7 C2.61976483 7 0.16531063 6.12544378 -3 5 C-1.125 1.125 -1.125 1.125 0 0 Z " fill="#8B7F75" transform="translate(13,27)"/>
<path d="M0 0 C2 2 2 2 2.125 4.625 C2.08375 5.40875 2.0425 6.1925 2 7 C0.35 7.33 -1.3 7.66 -3 8 C-2.01 5.36 -1.02 2.72 0 0 Z " fill="#E1CEB4" transform="translate(89,15)"/>
<path d="M0 0 C0.66 0 1.32 0 2 0 C2.33 1.98 2.66 3.96 3 6 C1.68 6 0.36 6 -1 6 C-0.67 4.02 -0.34 2.04 0 0 Z " fill="#686538" transform="translate(9,5)"/>
<path d="M0 0 C0.33 0 0.66 0 1 0 C1 2.64 1 5.28 1 8 C-0.32 8 -1.64 8 -3 8 C-1.125 2.25 -1.125 2.25 0 0 Z " fill="#F2DEC2" transform="translate(92,41)"/>
</svg>